<svg id="Capa_1" enable-background="new 0 0 512 512" height="512" viewBox="0 0 512 512" width="512" xmlns="http://www.w3.org/2000/svg"><g><path d="M268.3,123.9a28.58,28.58,0,0,0-2.74-1c-14.45-5-26.81-12.94-35.56-25.81-.58-.85-1.08-1.75-1.27-2.07,4.76-.59,9.84-.29,14.17-2,6.79-2.63,13.18-6.4,19.55-10,4.07-2.32,4.94-6.49,2.65-9.89s-6.19-3.77-10.23-1.33c-3.89,2.35-7.82,4.66-11.91,6.63A19,19,0,0,1,224.84,78a136,136,0,0,0-12.2-6.1c-11.78-4.88-23.85-8.11-36.75-4.94a2.29,2.29,0,0,1-1.79-.49c-3.63-3.31-6.5-7.12-7.72-12.57L169.15,55A28.24,28.24,0,0,0,186.5,56.7a6.62,6.62,0,0,0,5.22-7.33,6.7,6.7,0,0,0-7-6c-1,0-1.91.27-2.88.34a17,17,0,0,1-11.46-3.27c5.93-8.14,11.73-16,17.44-23.95a6.74,6.74,0,0,0-1.42-9.76c-3.09-2.16-7-1.49-9.48,1.76s-4.92,6.72-7.38,10.08c-3,4.05-5.93,8.09-9.51,13-3.65-7-7-13.44-10.33-19.82-.53-1-1.05-11-3.59-11.39a36.17,36.17,0,0,0-7.66-.18,3.46,3.46,0,0,0-3,2.34c-1.92,5.63-4.79,14.17-6.83,18.45-7,14.81-19.84,21.46-36,18.5C84.87,38,77.38,35.17,69.82,32.84c-3.69-1.13-7.32.12-8.84,3.4a6.58,6.58,0,0,0,3.39,9c10.32,4.55,21,8,32.36,8.62,3.78.2,7.59,0,11.68,0-5.68,5.53-12.5,8.05-19.71,9.78-4.51,1.08-9.18,1.71-13.53,3.23C63.32,71.05,55,79.56,48.14,89.74a5.2,5.2,0,0,1-4,2.72,81.3,81.3,0,0,0-10.8,2.17C19.38,98.37,8.47,105.76,3.23,119.88a18.4,18.4,0,0,1-1.52,3.71C-.95,127.67-.5,131.73,3,134s7.67,1.09,10.12-3a40.47,40.47,0,0,0,2.76-6.06c4-10.22,12.35-14.82,22.73-17.56-.46,1.27-.83,2.12-1.09,3-2.69,9.28-5.52,18.53-8,27.87-1.23,4.61,1.24,8.26,5.41,9,3.79.67,7-1.88,7.83-6.36a135.21,135.21,0,0,1,10.88-33.91c4-8.23,8.86-16,16.22-21.67,2.78-2.15,5.93-3.8,9-5.76a7.93,7.93,0,0,1,.38,1.19c0,.58,0,1.17-.09,1.74-1.75,16.8,3.16,31.76,12.63,45.43,2.92,4.22,6.93,5.29,10.36,2.84s3.63-6.35.85-10.5c-1.51-2.25-3-4.53-4.27-6.92-5.66-10.59-7.8-21.78-5.5-33.7.41-2.16,1.16-3.63,3.63-4.15A35.11,35.11,0,0,0,104,72.9c11.93-5.4,20.59-13.64,23.1-27.11.07-.38.47-.71.92-1.38.26,1,.49,1.61.59,2.25.77,5.47,1.68,10.92,2.23,16.4a11.62,11.62,0,0,0,4.44,8.37C146.39,80.72,146,91,134.23,99.34c-4.09,2.88-8.69,5-13.09,7.45-3.56,1.95-5,5.63-3.39,9.06a6.63,6.63,0,0,0,9.08,3.23c4-1.89,7.88-4.13,11.82-6.2.62-.33,1.27-.61,2.57-1.24-.27,3.3-.21,6-.77,8.62-1.31,6.1-4.65,11.21-8.5,16-2.84,3.55-2.62,7.48.5,10.05s7.13,2,10-1.45a56.4,56.4,0,0,0,10.94-20.32c2-6.92,2.12-13.8-.94-20.44-.82-1.79-.52-2.87.53-4.38,5.87-8.42,6.49-17.34,1.37-26.23-2.24-3.89-5.52-7.17-8.23-10.81A9.6,9.6,0,0,1,144,58.77q-2.1-13.92-3.81-27.91c-.18-1.45.45-3,.78-4.93,3.91,5.58,7.46,10.49,10.81,15.53a6.47,6.47,0,0,1,1.05,4.13,31.49,31.49,0,0,0,3,19.2c3.23,6.5,8.19,11.49,14,15.69,7.19,5.22,9.94,12.41,8.49,20.85-.9,5.26-3.08,10.32-4.92,15.38-1.32,3.61-.27,7.32,2.95,9a6.42,6.42,0,0,0,8.86-2.44c7.16-14,10.52-28.33,2.53-43.27a4.59,4.59,0,0,1-.16-1,66.82,66.82,0,0,1,21.2,6.07,4.3,4.3,0,0,1,1.7,2.45,69.71,69.71,0,0,0,16.22,26.88,3.94,3.94,0,0,1,1.21,4.13,24.25,24.25,0,0,0-.5,7c.61,9.08,4.54,17,9,24.74,2.1,3.66,6.12,4.73,9.46,2.79s4.25-5.85,2.23-9.64c-1.68-3.16-3.47-6.27-5-9.5-1.19-2.48-2.09-5.1-3.12-7.65a8.68,8.68,0,0,1,3,1.11c7,3.11,13.87,6.37,21,9.19,3.37,1.34,6.93-.84,8.13-4.21A6.72,6.72,0,0,0,268.3,123.9Z"></path></g></svg>